<?xml version="1.0" encoding="UTF-8"?>
<svg id="Layer_1" xmlns="http://www.w3.org/2000/svg" version="1.1" viewBox="0 0 633.75 124.96">
  <!-- Generator: Adobe Illustrator 30.0.0, SVG Export Plug-In . SVG Version: 2.1.1 Build 123)  -->
  <defs>
    <style>
      .st0 {
        fill: #2b2969;
      }
    </style>
  </defs>
  <path class="st0" d="M86.55,8.39v7.23c0,4.67-3.79,8.46-8.46,8.46H24.1v100.56H.71V23.62h22.66L44.55,5c2.23-2.62,5.49-4.13,8.92-4.13h25.56c4.15,0,7.52,3.37,7.52,7.52Z"/>
  <polygon class="st0" points="306.19 .32 333.18 .32 354.82 57.34 375.09 .32 402.45 .32 350.45 124.64 321.62 124.64 340.59 85.7 306.19 .32"/>
  <polygon class="st0" points="206.86 .32 233.85 .32 255.49 57.34 275.76 .32 303.12 .32 251.12 124.64 222.29 124.64 241.27 85.7 206.86 .32"/>
  <g>
    <path class="st0" d="M449.33.37l4.31.37c6.46.87,12.61,2.75,18.15,6.19,3.97,2.47,7.23,5.74,10.97,8.5l.06-14.97.13-.13h23.54l.13.13-.04,124.17h-23.81l-.06-16.51c-3.63,2.7-6.9,5.88-10.63,8.45-5.14,3.55-10.94,6.17-17.13,7.3l-5.1.65h-3.57l-5.19-.65c-27.44-5.45-44.92-34.16-46.26-60.72-.04-.8.15-1.72-.18-2.45v-2.14c.33-.71.14-1.59.17-2.37.56-10.9,3.91-22.77,9.9-31.91,9-13.75,24.9-23.34,41.51-23.84l.22-.09h2.85ZM450.29,23.3c-17.86,1.03-30.64,17.23-32.43,34.17-1.96,18.64,8.69,38.76,27.88,42.88,22.16,4.76,39.89-14.04,41.39-35.05,1.54-21.56-13.75-43.33-36.84-42Z"/>
    <path class="st0" d="M632.96,56.21l.09,68.43h-20.69l-.08-64.64c-.82-17.19-13.02-34.13-30.82-36.3-21.54-2.64-37.88,16.22-38.73,36.57.06,17.95-.11,35.91.1,53.84-.43,2.96.33,7.23-.01,10.14-.02.13-.01.23-.14.31h-23.67l-.04-124.23h23.67l.13.13-.03,14.76c3.71-2.71,7.04-5.91,10.97-8.33,24.87-15.26,58.87-1.75,71.9,22.76,4.15,7.8,6.84,17.51,7.26,26.35l.09.22Z"/>
  </g>
  <path class="st0" d="M142.08.37l4.31.37c6.46.87,12.61,2.75,18.15,6.19,3.97,2.47,7.23,5.74,10.97,8.5l.06-14.97.13-.13h23.54l.13.13-.04,124.17h-23.81l-.06-16.51c-3.63,2.7-6.9,5.88-10.63,8.45-5.14,3.55-10.94,6.17-17.13,7.3l-5.1.65h-3.57l-5.19-.65c-27.44-5.45-44.92-34.16-46.26-60.72-.04-.8.15-1.72-.18-2.45v-2.14c.33-.71.14-1.59.17-2.37.56-10.9,3.91-22.77,9.9-31.91C106.5,10.55,122.4.96,139.01.46l.22-.09h2.85ZM143.04,23.3c-17.86,1.03-30.64,17.23-32.43,34.17-1.96,18.64,8.69,38.76,27.88,42.88,22.16,4.76,39.89-14.04,41.39-35.05,1.54-21.56-13.75-43.33-36.84-42Z"/>
</svg>